<svg width="104" height="104" viewBox="0 0 104 104" fill="none" xmlns="http://www.w3.org/2000/svg">
<path d="M51.6242 89.8924C51.8501 89.8849 51.95 89.8667 52.1627 89.9296C52.1804 90.2849 52.4961 90.8918 52.6466 91.2C52.9252 91.7705 53.5336 94.3934 54.002 94.5703C55.4094 95.1004 57.9786 94.4886 59.3793 94.9918L59.4253 95.1131C59.2663 96.3131 56.0264 97.3383 55.2389 98.91L55.2017 98.9855C55.4153 99.6241 56.7378 103.408 56.5354 103.877C56.4961 103.968 56.4486 103.963 56.3634 104C55.6009 103.891 53.2068 101.977 52.1843 101.379L51.6017 101.189C50.571 101.839 48.2912 104.078 47.2542 103.998C47.0167 103.684 48.7311 98.9826 48.3895 98.4106C48.0522 97.8465 43.9341 95.8231 44.35 94.9829C44.8321 94.7754 49.1771 94.7792 49.8871 94.7804C50.1478 93.9113 50.4876 93.1691 50.7743 92.3389C51.1106 91.3648 51.1216 90.8446 51.6242 89.8924Z" fill="black"/>
<path d="M74.126 83.7693C74.2053 83.7718 74.2941 83.7725 74.3684 83.8045C74.8308 84.0045 75.6758 87.4477 75.952 88.1195C76.0326 88.317 76.1439 88.531 76.3126 88.6656C77.35 89.4888 80.6514 88.7057 81.635 89.1516C81.7462 89.2019 81.7737 89.2077 81.8181 89.3253C81.48 90.0491 79.9714 90.9706 79.2784 91.5209C78.7291 91.9573 78.1979 92.4164 77.6868 92.8975C77.7255 94.2981 78.3173 95.4101 78.7541 96.6862C78.9047 97.1252 78.9728 97.9201 79.0147 98.3962C77.4443 97.7188 75.3147 95.6731 74.2948 95.4007C73.2637 95.5328 71.0689 97.7912 69.5066 98.3729C69.8103 96.0567 70.3098 95.0811 71.0246 92.8724C70.1604 92.2479 69.3348 91.5748 68.5118 90.8962C68.1493 90.5974 66.3817 89.702 66.6641 89.1008C67.6584 88.8744 71.8548 89.4157 72.3331 88.5787C73.1536 87.141 73.0962 85.319 74.126 83.7693Z" fill="black"/>
<path d="M29.2784 83.7603C30.6356 83.995 30.3384 88.0465 31.9011 89.0244C32.7541 89.0904 36.4764 88.9207 36.9122 89.359L36.9088 89.5314C36.6343 89.8925 34.8487 91.159 34.3697 91.5351C33.8116 91.9728 33.2586 92.4289 32.7005 92.9113C32.8605 93.5779 33.1693 94.2609 33.3691 94.9231C33.6827 95.9621 33.9838 97.0156 34.2402 98.0691C34.2731 98.2042 34.2206 98.2363 34.1461 98.3111C33.4949 98.3041 31.1937 96.4225 30.5263 95.9734C30.3422 95.8495 30.0167 95.7067 29.8073 95.6104C29.7475 95.5845 29.3338 95.4214 29.2875 95.442C27.93 96.0583 25.9946 97.9601 24.6427 98.2922C24.9094 97.2759 25.1669 96.2501 25.4359 95.2363C25.696 94.2559 25.9632 93.8099 26.0568 92.7748C24.9181 91.5107 23.2136 90.9445 21.8726 89.3704C22.4255 89.1949 22.999 89.093 23.5782 89.0685C24.5295 89.0213 26.3693 89.1709 27.1631 88.9325C27.8257 88.7337 28.1747 86.5746 28.3939 86.0017C28.6629 85.2986 28.9993 84.5036 29.2784 83.7603Z" fill="black"/>
<path fill-rule="evenodd" clip-rule="evenodd" d="M91.9125 66.8863C96.5004 66.8863 100.22 70.6299 100.22 75.2479C100.22 79.8658 96.5004 83.6094 91.9125 83.6095C87.3245 83.6095 83.6052 79.8659 83.6052 75.2479C83.6052 70.6299 87.3245 66.8863 91.9125 66.8863ZM87.2396 79.0038L88.1809 79.9512L91.3263 76.7853C90.8945 76.6184 90.5508 76.2725 90.385 75.8379L87.2396 79.0038ZM93.4399 75.8379C93.2741 76.2725 92.9303 76.6184 92.4985 76.7853L95.6439 79.9512L96.5853 79.0038L93.4399 75.8379ZM87.2396 71.4919L90.385 74.6579C90.5508 74.2233 90.8945 73.8774 91.3263 73.7105L88.1809 70.5445L87.2396 71.4919ZM92.4985 73.7105C92.9303 73.8774 93.2741 74.2233 93.4399 74.6579L96.5853 71.4919L95.6439 70.5445L92.4985 73.7105Z" fill="black"/>
<path d="M13.2144 67.1667C14.8459 67.9541 14.2819 71.297 15.7028 72.2529C16.3087 72.6604 20.8472 71.8718 21.0714 72.8107C20.8729 73.3597 19.3655 74.0812 18.8802 74.4573C18.1841 74.9963 17.3359 75.6133 16.8693 76.3636L16.8249 76.4358C17.0219 77.3138 17.2002 78.1843 17.4648 79.0453C17.6392 79.612 18.4614 80.9861 18.2612 81.5327L18.1105 81.5961C17.0734 81.5263 14.8515 79.4408 13.728 78.7339C12.6166 78.6681 9.26602 82.2985 8.6814 81.4591C8.81594 80.3233 9.34035 79.0666 9.63688 77.9553C9.72521 77.6402 10.3242 76.4763 10.1071 76.2C9.60892 75.5667 8.41509 74.7485 7.76206 74.2485C7.13896 73.7711 6.37563 73.6232 5.99382 72.861C5.91614 72.7057 5.95801 72.6359 6.01835 72.5121C6.36819 72.2605 7.46421 72.3523 7.92614 72.3517L11.2797 72.3492C12.4184 70.8926 12.321 68.9799 13.2144 67.1667Z" fill="black"/>
<path d="M96.4034 44.7652C96.7221 44.9808 96.7759 45.3055 96.9284 45.6455C97.272 46.4132 97.5908 47.1847 97.8233 47.995C97.9608 48.4732 98.027 49.0058 98.2239 49.4603C98.6509 50.443 102.777 49.4999 103.792 50.0081C103.932 50.0782 103.959 50.1394 104 50.2843C103.784 51.0512 100.79 52.9713 99.9924 53.4619C99.4925 54.6077 100.75 56.748 100.952 58.0096C101.004 58.3322 101.24 58.6914 101.275 59.0794L101.127 59.1568C100.345 59.1591 97.3095 56.897 96.6665 56.2737C96.3928 56.3951 96.0572 56.2934 96.0516 56.377C96.0197 56.775 95.418 56.8908 95.105 57.1392C94.0558 57.9725 92.8777 58.6411 91.8097 59.441C91.7291 58.3914 91.9773 57.7467 92.3454 56.7725C92.4804 56.4152 93.1045 54.2775 93.0752 54.0687C92.9438 53.1404 89.3152 51.3668 89.0227 50.5115C88.9946 50.4285 88.9858 50.3335 89.0307 50.2561C89.4152 49.598 92.6527 49.9649 93.5064 49.9271C93.8032 49.9139 94.0919 49.8291 94.3762 49.7491C94.9811 48.8834 95.3136 47.3334 95.7391 46.3363C96.006 45.7125 95.816 45.297 96.4034 44.7652Z" fill="black"/>
<path d="M7.34354 44.6031C7.43647 44.6414 7.67794 44.7374 7.70481 44.8358C8.15943 46.5008 8.62413 48.2373 9.34656 49.8118C9.86429 49.8688 10.4341 49.9302 10.9513 49.9299C12.3676 49.9288 13.788 49.685 15.0597 50.4628C14.0884 51.0345 13.3292 51.8207 12.3882 52.444C11.7896 52.8402 11.265 53.2554 10.6294 53.6063C10.6647 55.3629 12.2269 58.1044 11.9236 59.1126L11.8098 59.1521C11.0339 59.0345 10.3705 58.3358 9.76205 57.8912C8.97385 57.3151 8.19581 56.7307 7.3595 56.225C6.6074 56.7049 3.17872 59.3968 2.49189 59.0635C2.44635 58.7471 4.03491 54.5169 3.90638 53.9345C3.72802 53.1282 -0.547666 51.0233 0.0588762 50.1882C0.561671 49.9194 4.42844 49.8851 5.25175 49.889C6.18666 48.0527 6.13466 46.1989 7.34354 44.6031Z" fill="black"/>
<path d="M90.3201 22.3592C90.437 22.3561 90.8143 22.3391 90.8793 22.3916C91.1105 22.5789 91.3042 23.5808 91.408 23.8636C91.8267 24.9993 92.1173 26.3823 92.6147 27.4564C93.4058 27.4675 94.1957 27.5099 94.9874 27.512C95.8204 27.5144 96.6686 27.3841 97.4984 27.5435C97.7965 27.6008 97.9453 27.7021 98.1921 27.8629C97.4285 28.6337 96.5285 29.0994 95.7349 29.8291C94.9476 30.5529 94.2258 30.7318 93.8865 31.817C94.4064 32.9791 95.0569 34.998 95.4512 36.2545C95.3331 36.4703 95.2874 36.6935 95.2224 36.932C93.8245 36.1737 92.1653 34.7498 90.8711 33.8348C90.7549 33.7795 90.6812 33.7556 90.5618 33.7133C90.3665 33.7432 86.4303 36.6282 85.9289 36.9989C85.8895 34.7881 86.898 33.6566 87.1524 31.2891C86.0325 30.121 84.5945 29.2852 83.2666 28.3969C83.0748 28.2685 82.9424 28.1415 82.908 27.9213C83.4618 26.9282 87.5162 27.8892 88.3835 27.2733C89.3765 26.568 89.6252 23.1122 90.3201 22.3592Z" fill="black"/>
<path d="M12.8891 22.3288C12.9493 22.33 13.0163 22.3286 13.076 22.3404C13.9632 22.518 14.5168 26.3572 15.0804 27.1533C15.1872 27.3043 15.3105 27.4225 15.5044 27.4269C15.827 27.4343 16.1771 27.2765 16.5174 27.2628C17.8244 27.2105 19.0747 27.3283 20.3646 27.5315L20.778 27.994C20.288 28.3814 19.7248 28.7295 19.2373 29.1388C18.2283 29.9858 16.85 30.4013 16.4755 31.7743C17.0238 32.8535 17.6348 35.4939 18.0163 36.8091C16.7401 36.4158 14.7119 34.7404 13.5655 33.9151C13.4809 33.8584 13.3788 33.8071 13.2884 33.7577C12.2337 33.6845 9.73546 36.7277 8.54844 36.5385C8.33805 36.139 9.39538 32.9104 9.54217 32.3118C9.6362 31.9281 9.616 31.4559 9.60707 31.0521C8.71064 30.0748 6.05732 28.707 5.64969 27.8793C5.62553 27.1875 7.11613 27.5344 7.63425 27.516C7.71467 27.4643 8.01268 27.2738 8.08772 27.2658C8.9882 27.1705 9.83973 27.4951 10.7628 27.4471L10.865 27.4413C12.1869 26.5701 12.0413 23.5643 12.8891 22.3288Z" fill="black"/>
<path d="M74.1168 5.9505C74.6748 6.30426 74.7185 6.52095 74.9691 7.16408C75.4353 8.36109 75.7827 9.99584 76.3101 11.1141C76.8183 11.3088 78.7511 11.166 79.0954 11.2421C79.7591 11.3888 81.2745 11.3615 81.6969 11.5234L81.7163 11.666C81.3557 12.4263 78.783 13.6805 77.7487 14.8508L77.6931 14.9144C77.6693 17.0926 78.9892 18.3046 79.0092 20.621C77.8375 19.8982 76.8294 19.1347 75.7164 18.3268C75.274 18.0055 74.8934 17.4955 74.3567 17.4403C73.4743 17.7335 70.4472 20.4624 69.5673 20.5074C69.2393 19.9332 70.9484 15.916 71.0215 15.2961C71.1381 14.3034 66.9147 12.5686 66.8515 11.5898C67.2941 10.8945 71.0022 11.5291 72.4544 10.8923C72.6025 9.94112 72.7607 9.63259 73.2049 8.80647C73.3923 8.45791 73.22 8.13662 73.3193 7.85603C73.5693 7.15518 73.9337 6.69406 74.1168 5.9505Z" fill="black"/>
<path d="M29.6238 5.46539C29.7437 5.4862 29.7359 5.48293 29.8362 5.55222C30.0098 6.53408 31.0766 9.26492 31.4463 10.3383C31.4889 10.4621 31.8829 10.8013 32.0115 10.9133C32.8812 10.9272 36.9077 10.6725 37.0951 11.4857C36.8192 12.2667 34.0143 13.8018 33.1812 14.6449L33.1314 14.696C33.0878 16.2463 33.6273 17.4865 34.1852 18.8859C34.3296 19.2482 34.6373 19.8448 34.2867 20.1312C33.3483 20.2698 31.5785 18.4678 30.8389 17.9186C30.4847 17.6555 29.8196 17.3946 29.4082 17.2553C29.2837 17.2969 28.8659 17.7029 28.7058 17.8269C28.1163 18.2839 25.7536 20.2705 25.1154 20.1897C24.5335 19.3897 26.8017 15.0531 26.2782 14.6364C24.9569 13.5854 23.2528 12.7545 22.0351 11.5155L22.4051 10.9248C23.8587 10.8442 26.0401 10.9201 27.5781 10.9117C27.8508 10.1487 28.3439 9.71056 28.3263 8.82758C28.3262 8.81733 28.7824 7.75189 28.8371 7.62648C29.1119 6.99492 29.284 6.02712 29.6238 5.46539Z" fill="black"/>
<path d="M51.9102 0C52.7111 0.51676 53.0514 4.05181 53.8386 4.83199C54.2702 5.25973 55.0491 5.11814 55.6385 5.14278L55.7119 5.31962L55.8541 5.31046C56.0528 5.14054 56.1068 5.12147 56.3516 5.01998L56.4192 4.99263C56.6642 5.05363 57.1431 5.11542 57.4024 5.20106C57.3727 5.19132 57.4527 5.3173 57.5645 5.38972C57.7283 5.27672 57.8068 5.19711 58.0041 5.18434C58.4869 5.54005 58.764 5.01148 59.2489 5.19881C59.3084 5.26972 59.362 5.29632 59.3571 5.39596C59.3462 5.61574 59.168 5.79217 59.0227 5.94134C58.61 6.36488 56.7683 7.88725 56.2862 7.87608C56.2686 7.8757 56.251 7.87341 56.2335 7.87196C56.1292 8.02218 55.2963 9.12115 55.2955 9.17554C55.3004 11.0061 56.6321 12.6859 56.5728 14.5404C55.1012 13.6476 53.6747 12.6813 52.2989 11.6452C51.9865 11.5689 51.6844 11.5954 51.3606 11.6015C50.6792 12.1128 47.9295 14.4064 47.2944 14.1992C47.2031 14.0492 47.1939 13.8016 47.2515 13.6443C47.8249 12.0806 48.2209 10.7839 48.5305 9.13625C47.9858 8.2305 47.0785 7.97873 46.352 7.3275C45.9119 6.93293 44.205 5.7632 44.3277 5.22231C44.6465 5.11574 44.9432 5.14704 45.2515 5.11384C46.3799 4.99234 46.5187 4.94239 47.5375 5.37525C47.584 5.32703 47.6314 5.27951 47.6794 5.23279C47.7124 5.20131 47.9266 5.02603 47.9429 5.02648C48.522 5.05541 49.0587 5.13705 49.6522 5.14743C50.8577 3.92651 50.655 1.21604 51.9102 0Z" fill="black"/>
</svg>
