<svg width="338" height="64" viewBox="0 0 338 64" fill="none" xmlns="http://www.w3.org/2000/svg">
<path fill-rule="evenodd" clip-rule="evenodd" d="M57.2008 0L63.6069 6.44571L42.1986 27.9864C41.0701 25.0294 38.7313 22.6761 35.7925 21.5406L57.2008 0ZM27.8145 21.5406L6.40612 0L0 6.44571L21.4083 27.9863C22.5368 25.0294 24.8756 22.6761 27.8145 21.5406ZM21.4083 36.0137L0 57.5543L6.40612 64L27.8145 42.4594C24.8756 41.3239 22.5368 38.9706 21.4083 36.0137ZM35.7925 42.4594L57.2008 64L63.6069 57.5543L42.1986 36.0137C41.0701 38.9706 38.7313 41.3239 35.7925 42.4594Z" fill="#151518"/>
<path d="M121.864 52.7989C121.469 52.7989 121.213 52.6005 121.095 52.2038L119.143 45.8363C119.064 45.6776 118.966 45.5983 118.847 45.5983H103.234C103.115 45.5983 103.017 45.6776 102.938 45.8363L100.986 52.2038C100.868 52.6005 100.612 52.7989 100.217 52.7989H94.303C94.0664 52.7989 93.889 52.7394 93.7707 52.6203C93.6524 52.4616 93.6327 52.2434 93.7115 51.9657L106.546 11.7378C106.664 11.3411 106.92 11.1427 107.314 11.1427H114.707C115.102 11.1427 115.358 11.3411 115.476 11.7378L128.369 51.9657C128.409 52.0451 128.429 52.1443 128.429 52.2633C128.429 52.6203 128.212 52.7989 127.778 52.7989H121.864ZM104.771 39.8259C104.732 40.064 104.811 40.183 105.008 40.183H117.014C117.251 40.183 117.329 40.064 117.251 39.8259L111.159 19.8905C111.119 19.7318 111.06 19.6525 110.981 19.6525C110.902 19.6525 110.843 19.7318 110.804 19.8905L104.771 39.8259Z" fill="#151518"/>
<path d="M153.852 53.2749C150.895 53.2749 148.292 52.6997 146.045 51.5492C143.798 50.359 142.063 48.7126 140.84 46.6099C139.618 44.5073 139.007 42.0674 139.007 39.2904V24.5917C139.007 21.8146 139.618 19.3748 140.84 17.2721C142.063 15.1695 143.798 13.5429 146.045 12.3924C148.292 11.2419 150.895 10.6666 153.852 10.6666C156.77 10.6666 159.352 11.2221 161.6 12.3329C163.847 13.4437 165.582 15.0108 166.804 17.0341C168.027 19.0574 168.638 21.3981 168.638 24.0561C168.638 24.2545 168.559 24.433 168.401 24.5917C168.283 24.7107 168.125 24.7702 167.928 24.7702L162.487 25.0678C162.014 25.0678 161.777 24.8496 161.777 24.4132C161.777 22.0725 161.048 20.1881 159.589 18.7598C158.169 17.3316 156.257 16.6175 153.852 16.6175C151.447 16.6175 149.515 17.3316 148.056 18.7598C146.597 20.1881 145.868 22.0725 145.868 24.4132V39.5879C145.868 41.8889 146.597 43.7535 148.056 45.1817C149.515 46.6099 151.447 47.3241 153.852 47.3241C156.257 47.3241 158.169 46.6298 159.589 45.2412C161.048 43.813 161.777 41.9286 161.777 39.5879C161.777 39.1515 162.014 38.9333 162.487 38.9333L167.928 39.1714C168.125 39.1714 168.283 39.2309 168.401 39.3499C168.559 39.4689 168.638 39.6077 168.638 39.7664C168.638 42.4642 168.027 44.8445 166.804 46.9075C165.582 48.9308 163.847 50.4979 161.6 51.6087C159.352 52.7195 156.77 53.2749 153.852 53.2749Z" fill="#151518"/>
<path d="M205.744 52.7989C205.35 52.7989 205.074 52.6203 204.916 52.2633L197.109 35.1248C197.03 34.9661 196.912 34.8867 196.754 34.8867H189.657C189.46 34.8867 189.361 34.9859 189.361 35.1843V52.0848C189.361 52.2831 189.283 52.4616 189.125 52.6203C189.007 52.7394 188.849 52.7989 188.652 52.7989H183.211C183.013 52.7989 182.836 52.7394 182.678 52.6203C182.56 52.4616 182.501 52.2831 182.501 52.0848V11.8568C182.501 11.6585 182.56 11.4998 182.678 11.3808C182.836 11.2221 183.013 11.1427 183.211 11.1427H199.475C201.88 11.1427 204.009 11.6585 205.862 12.6899C207.716 13.6818 209.155 15.11 210.18 16.9746C211.205 18.7995 211.718 20.9022 211.718 23.2825C211.718 26.0199 211.008 28.3606 209.588 30.3045C208.208 32.2088 206.276 33.5379 203.792 34.2916C203.714 34.2916 203.654 34.3313 203.615 34.4107C203.576 34.49 203.576 34.5693 203.615 34.6487L211.954 51.9657C212.033 52.1244 212.072 52.2434 212.072 52.3228C212.072 52.6402 211.856 52.7989 211.422 52.7989H205.744ZM189.657 17.0936C189.46 17.0936 189.361 17.1928 189.361 17.3911V29.2334C189.361 29.4317 189.46 29.5309 189.657 29.5309H198.529C200.421 29.5309 201.939 28.9755 203.083 27.8647C204.266 26.7142 204.857 25.2066 204.857 23.342C204.857 21.4774 204.266 19.9699 203.083 18.8193C201.939 17.6688 200.421 17.0936 198.529 17.0936H189.657Z" fill="#151518"/>
<path d="M239.295 53.3939C236.338 53.3939 233.716 52.7989 231.429 51.6087C229.142 50.3788 227.368 48.6531 226.106 46.4314C224.884 44.2098 224.273 41.6509 224.273 38.7548V25.1868C224.273 22.3304 224.903 19.8112 226.165 17.6292C227.427 15.4075 229.181 13.7016 231.429 12.5114C233.716 11.2816 236.338 10.6666 239.295 10.6666C242.292 10.6666 244.914 11.2816 247.161 12.5114C249.448 13.7016 251.222 15.4075 252.484 17.6292C253.746 19.8112 254.377 22.3304 254.377 25.1868V38.7548C254.377 41.6509 253.746 44.2098 252.484 46.4314C251.222 48.6531 249.448 50.3788 247.161 51.6087C244.914 52.7989 242.292 53.3939 239.295 53.3939ZM239.295 47.4431C241.779 47.4431 243.77 46.6695 245.268 45.1222C246.767 43.575 247.516 41.5319 247.516 38.9928V25.1273C247.516 22.5486 246.767 20.4856 245.268 18.9384C243.77 17.3911 241.779 16.6175 239.295 16.6175C236.85 16.6175 234.879 17.3911 233.381 18.9384C231.882 20.4856 231.133 22.5486 231.133 25.1273V38.9928C231.133 41.5319 231.882 43.575 233.381 45.1222C234.879 46.6695 236.85 47.4431 239.295 47.4431Z" fill="#151518"/>
<path d="M281.884 53.2749C278.808 53.2749 276.127 52.779 273.84 51.7872C271.553 50.7954 269.779 49.4069 268.517 47.6216C267.295 45.8363 266.684 43.7337 266.684 41.3137V39.8259C266.684 39.6276 266.743 39.4689 266.861 39.3499C267.019 39.1912 267.196 39.1118 267.394 39.1118H272.657C272.854 39.1118 273.012 39.1912 273.13 39.3499C273.288 39.4689 273.367 39.6276 273.367 39.8259V40.9566C273.367 42.7816 274.175 44.3089 275.792 45.5388C277.409 46.729 279.617 47.3241 282.416 47.3241C284.821 47.3241 286.635 46.8083 287.857 45.7768C289.079 44.7453 289.691 43.4163 289.691 41.7897C289.691 40.6789 289.355 39.7466 288.685 38.9928C288.015 38.1994 287.049 37.4853 285.787 36.8505C284.565 36.2158 282.712 35.4223 280.228 34.4702C277.428 33.4387 275.161 32.4667 273.426 31.5542C271.691 30.6418 270.232 29.4119 269.05 27.8647C267.906 26.2778 267.334 24.314 267.334 21.9733C267.334 18.4821 268.596 15.7249 271.12 13.7016C273.643 11.6783 277.014 10.6666 281.233 10.6666C284.19 10.6666 286.793 11.1824 289.04 12.2139C291.327 13.2454 293.101 14.6934 294.363 16.558C295.625 18.383 296.255 20.5054 296.255 22.9255V23.9371C296.255 24.1355 296.177 24.314 296.019 24.4727C295.901 24.5917 295.743 24.6512 295.546 24.6512H290.223C290.026 24.6512 289.848 24.5917 289.691 24.4727C289.572 24.314 289.513 24.1355 289.513 23.9371V23.2825C289.513 21.4179 288.744 19.8508 287.207 18.5813C285.708 17.2721 283.619 16.6175 280.937 16.6175C278.769 16.6175 277.073 17.0738 275.851 17.9862C274.668 18.8987 274.077 20.1881 274.077 21.8543C274.077 23.0445 274.392 24.0165 275.023 24.7702C275.654 25.524 276.6 26.2183 277.862 26.853C279.124 27.4481 281.075 28.2217 283.717 29.1739C286.517 30.245 288.744 31.217 290.4 32.0898C292.096 32.9626 293.535 34.1925 294.718 35.7794C295.94 37.3266 296.551 39.2705 296.551 41.6112C296.551 45.1817 295.23 48.0183 292.589 50.121C289.986 52.2236 286.418 53.2749 281.884 53.2749Z" fill="#151518"/>
<path d="M323.332 53.2749C320.257 53.2749 317.576 52.779 315.289 51.7872C313.002 50.7954 311.228 49.4069 309.966 47.6216C308.744 45.8363 308.133 43.7337 308.133 41.3137V39.8259C308.133 39.6276 308.192 39.4689 308.31 39.3499C308.468 39.1912 308.645 39.1118 308.842 39.1118H314.106C314.303 39.1118 314.461 39.1912 314.579 39.3499C314.737 39.4689 314.816 39.6276 314.816 39.8259V40.9566C314.816 42.7816 315.624 44.3089 317.241 45.5388C318.857 46.729 321.065 47.3241 323.865 47.3241C326.27 47.3241 328.084 46.8083 329.306 45.7768C330.528 44.7453 331.139 43.4163 331.139 41.7897C331.139 40.6789 330.804 39.7466 330.134 38.9928C329.464 38.1994 328.498 37.4853 327.236 36.8505C326.014 36.2158 324.16 35.4223 321.676 34.4702C318.877 33.4387 316.61 32.4667 314.875 31.5542C313.14 30.6418 311.681 29.4119 310.498 27.8647C309.355 26.2778 308.783 24.314 308.783 21.9733C308.783 18.4821 310.045 15.7249 312.568 13.7016C315.092 11.6783 318.463 10.6666 322.682 10.6666C325.639 10.6666 328.241 11.1824 330.489 12.2139C332.776 13.2454 334.55 14.6934 335.812 16.558C337.073 18.383 337.704 20.5054 337.704 22.9255V23.9371C337.704 24.1355 337.625 24.314 337.468 24.4727C337.349 24.5917 337.192 24.6512 336.995 24.6512H331.672C331.475 24.6512 331.297 24.5917 331.139 24.4727C331.021 24.314 330.962 24.1355 330.962 23.9371V23.2825C330.962 21.4179 330.193 19.8508 328.655 18.5813C327.157 17.2721 325.067 16.6175 322.386 16.6175C320.218 16.6175 318.522 17.0738 317.3 17.9862C316.117 18.8987 315.526 20.1881 315.526 21.8543C315.526 23.0445 315.841 24.0165 316.472 24.7702C317.103 25.524 318.049 26.2183 319.311 26.853C320.572 27.4481 322.524 28.2217 325.166 29.1739C327.965 30.245 330.193 31.217 331.849 32.0898C333.545 32.9626 334.984 34.1925 336.167 35.7794C337.389 37.3266 338 39.2705 338 41.6112C338 45.1817 336.679 48.0183 334.037 50.121C331.435 52.2236 327.867 53.2749 323.332 53.2749Z" fill="#151518"/>
</svg>
