<svg width="64" height="64" viewBox="0 0 64 64" fill="none" xmlns="http://www.w3.org/2000/svg">
<path fill-rule="evenodd" clip-rule="evenodd" d="M32 0C49.6731 0 64 14.3269 64 32C64 49.6731 49.6731 64 32 64C14.3269 64 0 49.6731 0 32C0 14.3269 14.3269 0 32 0ZM14 46.374L17.626 50L29.7422 37.8838C28.0789 37.2451 26.7549 35.9211 26.1162 34.2578L14 46.374ZM37.8838 34.2578C37.2451 35.9211 35.9211 37.2451 34.2578 37.8838L46.374 50L50 46.374L37.8838 34.2578ZM14 17.626L26.1162 29.7422C26.7549 28.0789 28.0789 26.7549 29.7422 26.1162L17.626 14L14 17.626ZM34.2578 26.1162C35.9211 26.7549 37.2451 28.0789 37.8838 29.7422L50 17.626L46.374 14L34.2578 26.1162Z" fill="#151518"/>
</svg>
