<svg width="74" height="88" viewBox="0 0 74 88" fill="none" xmlns="http://www.w3.org/2000/svg">
<path fill-rule="evenodd" clip-rule="evenodd" d="M5.63185 0.0063728C5.96778 -0.0404079 6.32472 0.174964 6.56803 0.501192C9.65697 4.63276 13.2278 8.87166 17.3653 11.7364C18.052 9.9341 17.5886 12.0245 20.0699 13.9056C22.0669 15.4198 24.1221 16.7343 26.2377 18.0996C29.497 20.2035 31.423 23.1324 30.2819 27.1076C29.4346 30.056 28.9514 33.7251 32.3109 35.4412C33.2804 35.9361 34.3994 35.9715 35.2738 35.4533C36.6954 34.61 36.8869 32.4098 36.6337 32.2079C36.1879 31.8523 35.5999 32.7129 35.0515 32.5073C33.9362 32.0888 35.4861 25.9122 36.158 24.5973C35.3602 24.6306 34.7699 25.0691 33.9993 24.7134C34.1858 22.6722 35.18 20.7774 36.3447 19.0662C36.7226 18.511 36.5833 18.0466 36.1498 17.5566C34.5318 15.7272 34.0266 13.1039 35.011 10.7796C36.1657 11.7078 36.8077 12.7704 37.9772 13.4672C38.6392 12.6928 38.1271 11.4198 39.0547 10.691C40.0809 11.7398 40.7378 13.5754 42.1654 13.9768C43.9822 14.4877 48.4658 12.0343 50.9891 15.1022C51.9192 16.2333 54.7414 14.7929 56.904 17.0765C58.3058 18.5587 58.3909 21.0358 57.2806 22.6252C56.4519 21.9062 56.2231 21.0271 55.3338 20.8129C53.1453 20.2861 50.9013 21.0793 49.1747 22.6821C51.1089 22.8434 53.2236 22.9058 54.7415 24.1874C54.3191 25.5785 52.4799 24.3737 49.6762 25.6713C48.7772 26.0874 48.3742 26.9623 48.6705 27.9483C49.0521 29.2163 49.9564 30.1449 51.0964 30.7629L54.9079 32.8286C54.567 33.7149 53.7297 33.7789 53.0344 34.3229C55.4626 37.2653 56.2527 41.1928 54.9139 44.7864C53.5554 44.5781 52.0031 40.9715 51.0028 41.6062C51.6833 44.9388 55.3796 48.6889 58.3537 49.3919C58.6167 49.4535 58.9307 49.7894 58.9258 49.9814C58.9184 50.3077 58.5354 50.4912 58.1155 50.7324C59.9682 52.7157 63.088 55.4145 65.72 52.7714C66.4746 52.0143 67.2241 51.3691 68.3271 51.5168C69.8757 51.7248 71.1984 52.9286 70.8109 53.8223C70.4429 54.6681 68.4701 52.9262 67.4166 55.0572L69.8003 55.4277C71.4479 55.6838 72.1301 58.2879 71.2446 59.7591C70.2824 59.5695 70.1512 58.4825 69.4275 58.2609C68.3542 57.9322 67.3589 57.4653 66.193 57.4333C66.3955 58.4108 67.3475 58.4676 67.7971 59.1471C68.6258 60.4016 68.3368 62.333 67.1264 63.1812C66.9079 63.3338 66.5623 63.2759 66.4202 63.2907C66.2436 63.3091 66.0805 62.9043 66.1213 62.6716C66.3312 61.4763 65.6691 60.9851 64.9836 60.2194C64.1141 59.2493 63.1075 57.8911 61.5389 58.3146C60.5188 58.5903 59.5714 59.4868 58.6192 59.9681C58.1895 60.4064 58.4057 61.2524 57.8944 61.6759C56.6815 61.2943 56.4359 60.1098 56.4211 59.1028C56.3902 56.8204 60.21 56.6909 59.1235 56.0101C58.2836 55.4832 54.1347 53.6109 53.4073 53.9728C52.9935 54.1799 52.1214 56.515 51.0679 55.801C50.3244 55.2963 50.2627 54.096 49.639 53.3746C48.2607 51.7804 46.3848 50.5062 44.1839 50.2464C44.3683 51.1795 46.9034 52.5265 46.8009 53.1863C46.6201 54.3373 42.6791 55.5571 41.4515 55.8968L41.4466 55.8996C36.9571 57.143 32.8681 59.4059 32.7335 64.5469C32.6162 69.0465 32.8443 73.6261 27.7559 75.9332C27.3989 75.1687 27.8363 74.5296 27.6091 73.6605C25.1834 75.2585 22.271 75.2585 21.4818 77.9546C21.1273 79.1672 21.0025 80.4315 21.1643 81.686C21.5311 84.531 25.6095 80.8131 27.3967 85.3544C27.7153 86.162 28.0115 87.035 27.504 87.8794L19.7885 87.9993C15.7967 88.0609 15.9535 83.9708 15.5472 81.0445C14.7728 81.2537 14.2688 81.5655 13.7181 81.3329C13.539 79.4014 14.7997 77.9397 15.7804 76.2408C15.2321 75.9566 14.7283 76.2321 14.1714 76.0426C13.833 70.5101 20.7555 73.0288 21.2026 67.9788C21.3742 66.0424 21.2209 64.1881 20.538 62.2479C18.946 64.1783 17.4578 65.6953 15.3731 66.8266C11.6309 68.8567 6.95252 67.8928 4.78983 64.1172C3.46335 61.8003 3.69503 59.0768 4.62504 56.6527C6.0429 52.9583 8.8173 50.3533 7.91701 48.3257C6.80421 45.8229 2.2291 48.796 0.339405 42.765C1.28167 42.5028 2.25014 43.4049 2.61088 42.967C2.90236 42.6124 -1.71303 39.8533 0.926299 35.4472C1.67957 36.4935 1.83404 37.4463 2.64154 38.1479C5.31919 40.4747 8.27842 40.4591 9.74941 43.3485C11.1166 46.036 11.1305 49.1335 9.91146 51.8567L7.32245 57.644C6.37651 59.7603 6.84986 62.6187 8.94571 63.872C11.1132 65.1682 13.7722 64.2905 15.5198 62.5867C17.6367 60.5234 19.3103 58.2064 21.0925 55.8328C25.3597 50.1476 26.4379 51.5633 29.7689 47.7285C30.1098 47.337 30.6203 46.3126 30.1905 45.8965C29.011 44.7553 26.2504 47.7447 22.4662 46.4362C21.8437 46.2207 21.2028 45.8854 21.0323 45.2538C21.7626 44.5361 24.6978 43.2472 24.557 42.3473C24.2885 40.6353 15.8807 45.2649 10.5515 39.4189C10.3724 39.222 10.3759 38.8907 10.4179 38.7183C10.4697 38.5041 10.7797 38.3158 11.1466 38.3171C12.6349 38.3208 19.8475 38.43 20.2774 37.1337C20.3588 36.8875 20.0318 36.513 19.7009 36.369C15.9635 34.7415 10.4153 34.9991 6.21108 31.6321C4.28065 30.0858 2.76898 28.1652 2.19589 25.7868C2.12549 25.4962 2.11952 25.2116 2.22327 25.0675C2.38887 24.8412 2.77428 24.8201 3.08171 24.9739C5.40482 26.1348 7.69077 27.1666 10.2115 27.9286L17.8285 30.2297C17.8705 28.9482 16.955 28.2377 16.0016 27.7452L8.51814 23.8776C3.70505 21.3858 -1.6054 15.554 0.457112 9.39972C3.87577 13.2062 7.51037 16.3617 11.838 18.9015L17.8318 22.4199C17.6996 20.5844 16.3822 19.5166 15.1557 18.5292C9.59045 14.0468 2.74161 8.73455 5.01539 0.606833C5.10189 0.296693 5.38982 0.0396403 5.63185 0.0063728ZM48.7187 16.9944C47.5602 16.5932 46.1203 16.7837 44.9718 17.1543L45.9857 18.0985C46.455 18.5355 47.3593 18.7411 47.8756 18.5281C48.3227 18.3421 48.9533 17.5691 48.7187 16.9955V16.9944Z" fill="black"/>
<path d="M37.5447 59.2133C38.4056 58.7406 39.4704 57.9515 40.5252 58.0918C42.3136 58.3294 44.0156 58.9206 45.6583 59.5521C47.9357 60.4299 49.3635 62.4106 49.7501 64.7571C49.9428 65.9228 50.1526 67.1502 49.5377 68.2175C48.8745 68.2298 48.5815 67.6713 47.9232 67.5076C47.4798 68.5527 46.9399 69.3896 46.3607 70.2132C45.5975 71.3002 46.172 72.4024 47.039 73.1263C48.8891 74.67 50.9949 75.0736 53.2512 74.4323C55.5188 73.7884 57.5559 75.1389 58.2612 77.2146C58.4378 77.7365 58.9686 79.0797 58.276 79.294C55.1648 79.5808 52.0857 79.3704 48.7992 79.358L48.8014 79.3569C47.155 79.3507 45.437 77.9263 44.8541 78.0285C44.4256 78.1038 44.4859 79.1993 43.6288 79.1599C42.1765 79.0932 41.9119 76.5077 40.9757 76.0695C40.5326 75.9604 40.2448 76.754 39.9361 77.1762C38.6158 76.2652 37.1459 74.6008 37.3608 72.817C37.635 71.7226 38.7997 70.9752 39.2616 70.0112C39.9112 68.6558 39.6742 67.2586 38.3095 66.5754C37.0955 65.9672 35.833 65.683 34.3831 65.5119C33.9915 62.9623 35.2315 60.4838 37.5447 59.2133Z" fill="black"/>
<path d="M69.9733 21.2124C70.5019 21.2518 71.9431 21.7738 71.3206 22.2749L69.7138 23.5699C69.0272 24.1227 68.7839 25.2724 68.5887 26.24C69.4274 25.9618 69.6142 25.2342 70.275 24.8612C71.6064 24.1104 73.8938 24.7431 74 26.3681C73.9432 26.9614 72.7984 26.639 72.4326 26.8136C71.2779 27.3627 70.2798 28.254 69.3831 29.0874C68.3308 30.0661 68.3715 31.3136 68.684 32.5779C69.2534 34.8836 70.1313 34.1981 71.0453 34.8506C72.0012 35.5339 68.1243 37.0464 67.3684 35.7242L65.9423 33.2288V33.2304C64.5194 34.693 63.5831 36.6196 63.0817 38.5623C62.8347 39.5202 63.1507 41.7729 62.653 42.2099C62.033 42.7565 60.7372 41.6989 60.0826 42.2554C59.1614 43.0371 58.3871 43.9309 57.1794 44.3261C57.125 40.5701 57.6461 39.0964 55.843 35.444C58.9047 34.8308 63.3239 31.7687 64.4466 29.1317C65.4257 26.8309 62.9201 24.6924 64.2675 22.895C64.7801 22.2119 65.6555 21.7233 66.6162 22.2672C66.1407 23.3149 65.7608 24.333 66.4388 25.2268C67.4033 23.7421 66.8104 20.9786 69.9733 21.2124Z" fill="black"/>
</svg>
