<svg width="71" height="10" viewBox="0 0 71 10" fill="none" xmlns="http://www.w3.org/2000/svg">
<path d="M0 9.7344V0.239044H6.93676C9.89365 0.239044 12.0377 2.24436 12.0377 4.98008C12.0377 7.72908 9.89365 9.7344 6.93676 9.7344H0ZM2.78872 7.50332H5.81567C7.97377 7.50332 9.15092 6.58699 9.15092 4.98008C9.15092 3.37317 7.97377 2.47012 5.81567 2.47012H2.78872V7.50332Z" fill="#151518"/>
<path d="M13.7263 9.7344V0.239044H23.8301V2.24436H16.515V4.06375H23.5499V5.89641H16.515V7.72908H23.8301V9.7344H13.7263Z" fill="#151518"/>
<path d="M31.5537 10C27.5038 10 25.2616 9.11023 25.1495 6.58699H28.0503C28.0503 7.56972 28.9892 8.07437 31.4696 8.07437C33.838 8.07437 34.4966 7.74236 34.4966 7.01195C34.4966 6.2417 33.9641 6.09562 31.3155 5.93625L30.797 5.90969C26.9432 5.69721 25.3597 4.84728 25.3597 2.84197C25.3597 0.929615 27.4617 0.01328 30.9371 0.01328C34.8189 0.01328 36.8649 1.12882 36.963 3.26693H34.0762C34.0762 2.27092 32.9971 1.93891 30.8671 1.93891C28.8491 1.93891 28.2465 2.24436 28.2465 2.85525C28.2465 3.5591 28.793 3.7583 31.2314 3.93094L31.806 3.97078C35.2674 4.22311 37.3834 4.52855 37.3834 6.91899C37.3834 9.25631 35.1973 10 31.5537 10Z" fill="#151518"/>
<path d="M38.9208 9.7344V0.239044H41.7095V9.7344H38.9208Z" fill="#151518"/>
<path d="M50.1648 10C45.9466 10 43.228 8.04781 43.228 5.0332C43.228 1.97875 45.8906 0 49.9826 0C53.7943 0 56.2327 1.58035 56.4289 3.73174H53.4019C53.2197 3.05445 52.0566 2.2842 50.0106 2.2842C47.5302 2.2842 46.1989 3.50598 46.1989 5.0332C46.1989 6.64011 47.6423 7.72908 50.3189 7.72908C51.6782 7.72908 53.0095 7.54316 54.1446 7.06507V6.40106H49.7443V4.56839H56.4289V8.49934C54.8593 9.48207 52.5611 10 50.1648 10Z" fill="#151518"/>
<path d="M58.1074 9.7344V0.239044H62.2274L68.2113 7.251V0.239044H71V9.7344H66.88L60.8962 2.69588V9.7344H58.1074Z" fill="#151518"/>
</svg>
