<svg width="121" height="40" viewBox="0 0 121 40" fill="none" xmlns="http://www.w3.org/2000/svg">
<path d="M16.398 21.3822C16.789 22.4005 17.5995 23.211 18.6178 23.602L11.1995 31.0204L8.97959 28.8005L16.398 21.3822Z" fill="#151518"/>
<path d="M31.0204 28.8005L28.8005 31.0204L21.3822 23.602C22.4005 23.211 23.211 22.4005 23.602 21.3822L31.0204 28.8005Z" fill="#151518"/>
<path d="M18.6178 16.398C17.5995 16.789 16.789 17.5995 16.398 18.6178L8.97959 11.1995L11.1995 8.97959L18.6178 16.398Z" fill="#151518"/>
<path d="M31.0204 11.1995L23.602 18.6178C23.211 17.5995 22.4005 16.789 21.3822 16.398L28.8005 8.97959L31.0204 11.1995Z" fill="#151518"/>
<path fill-rule="evenodd" clip-rule="evenodd" d="M20 0C31.0457 0 40 8.9543 40 20C40 31.0457 31.0457 40 20 40C8.9543 40 0 31.0457 0 20C0 8.9543 8.9543 0 20 0ZM20 3.26531C10.7577 3.26531 3.26531 10.7577 3.26531 20C3.26531 29.2423 10.7577 36.7347 20 36.7347C29.2423 36.7347 36.7347 29.2423 36.7347 20C36.7347 10.7577 29.2423 3.26531 20 3.26531Z" fill="#151518"/>
<path d="M50 24.7344V15.239H56.9368C59.8936 15.239 62.0377 17.2444 62.0377 19.9801C62.0377 22.7291 59.8936 24.7344 56.9368 24.7344H50ZM52.7887 22.5033H55.8157C57.9738 22.5033 59.1509 21.587 59.1509 19.9801C59.1509 18.3732 57.9738 17.4701 55.8157 17.4701H52.7887V22.5033Z" fill="#151518"/>
<path d="M63.7263 24.7344V15.239H73.8301V17.2444H66.515V19.0637H73.5499V20.8964H66.515V22.7291H73.8301V24.7344H63.7263Z" fill="#151518"/>
<path d="M81.5537 25C77.5038 25 75.2616 24.1102 75.1495 21.587H78.0503C78.0503 22.5697 78.9892 23.0744 81.4696 23.0744C83.838 23.0744 84.4966 22.7424 84.4966 22.012C84.4966 21.2417 83.9641 21.0956 81.3155 20.9363L80.797 20.9097C76.9432 20.6972 75.3597 19.8473 75.3597 17.842C75.3597 15.9296 77.4617 15.0133 80.9371 15.0133C84.8189 15.0133 86.8649 16.1288 86.963 18.2669H84.0762C84.0762 17.2709 82.9971 16.9389 80.8671 16.9389C78.8491 16.9389 78.2465 17.2444 78.2465 17.8552C78.2465 18.5591 78.793 18.7583 81.2314 18.9309L81.806 18.9708C85.2674 19.2231 87.3834 19.5286 87.3834 21.919C87.3834 24.2563 85.1973 25 81.5537 25Z" fill="#151518"/>
<path d="M88.9208 24.7344V15.239H91.7095V24.7344H88.9208Z" fill="#151518"/>
<path d="M100.165 25C95.9466 25 93.228 23.0478 93.228 20.0332C93.228 16.9788 95.8906 15 99.9826 15C103.794 15 106.233 16.5803 106.429 18.7317H103.402C103.22 18.0544 102.057 17.2842 100.011 17.2842C97.5302 17.2842 96.1989 18.506 96.1989 20.0332C96.1989 21.6401 97.6423 22.7291 100.319 22.7291C101.678 22.7291 103.01 22.5432 104.145 22.0651V21.4011H99.7443V19.5684H106.429V23.4993C104.859 24.4821 102.561 25 100.165 25Z" fill="#151518"/>
<path d="M108.107 24.7344V15.239H112.227L118.211 22.251V15.239H121V24.7344H116.88L110.896 17.6959V24.7344H108.107Z" fill="#151518"/>
</svg>
