<svg width="40" height="40" viewBox="0 0 40 40" fill="none" xmlns="http://www.w3.org/2000/svg">
<style>
  path { fill: #151518; }
  @media (prefers-color-scheme: dark) {
    path { fill: #ffffff; }
  }
</style>
<path d="M16.398 21.3822C16.789 22.4005 17.5995 23.211 18.6178 23.602L11.1995 31.0204L8.97959 28.8005L16.398 21.3822Z"/>
<path d="M31.0204 28.8005L28.8005 31.0204L21.3822 23.602C22.4005 23.211 23.211 22.4005 23.602 21.3822L31.0204 28.8005Z"/>
<path d="M18.6178 16.398C17.5995 16.789 16.789 17.5995 16.398 18.6178L8.97959 11.1995L11.1995 8.97959L18.6178 16.398Z"/>
<path d="M31.0204 11.1995L23.602 18.6178C23.211 17.5995 22.4005 16.789 21.3822 16.398L28.8005 8.97959L31.0204 11.1995Z"/>
<path fill-rule="evenodd" clip-rule="evenodd" d="M20 0C31.0457 0 40 8.9543 40 20C40 31.0457 31.0457 40 20 40C8.9543 40 0 31.0457 0 20C0 8.9543 8.9543 0 20 0ZM20 3.26531C10.7577 3.26531 3.26531 10.7577 3.26531 20C3.26531 29.2423 10.7577 36.7347 20 36.7347C29.2423 36.7347 36.7347 29.2423 36.7347 20C36.7347 10.7577 29.2423 3.26531 20 3.26531Z"/>
</svg>
