<svg width="200" height="200" viewBox="0 0 200 200" fill="none" xmlns="http://www.w3.org/2000/svg">
<path fill-rule="evenodd" clip-rule="evenodd" d="M99.9992 0C155.227 0 199.998 44.7712 199.998 99.9992C199.998 155.227 155.227 199.998 99.9992 199.998C44.7712 199.998 0 155.227 0 99.9992C0 44.7712 44.7712 0 99.9992 0ZM81.1726 107.276C80.7191 106.867 80.2137 106.783 79.6529 107.024C79.4007 107.133 79.0848 107.449 78.4531 108.08L44.7843 141.749C44.4542 142.079 44.2891 142.244 44.1896 142.429C43.9922 142.796 43.9674 143.253 44.1235 143.64C44.2022 143.835 44.3432 144.011 44.6253 144.363C47.8831 148.424 51.5785 152.119 55.6399 155.377C55.9915 155.659 56.1676 155.8 56.3625 155.879C56.7492 156.035 57.2062 156.01 57.5735 155.813C57.7587 155.713 57.9237 155.548 58.2538 155.218L91.9226 121.548C92.5543 120.917 92.8703 120.601 92.9787 120.349C93.2195 119.788 93.136 119.282 92.7276 118.829C92.5438 118.625 92.0871 118.4 91.1739 117.95C87.2185 116.001 84.0005 112.784 82.0515 108.829C81.6016 107.916 81.3765 107.46 81.1726 107.276ZM120.348 107.023C119.787 106.783 119.282 106.866 118.829 107.275C118.625 107.458 118.4 107.915 117.95 108.828C116.001 112.783 112.783 116.001 108.828 117.95C107.915 118.4 107.458 118.625 107.275 118.829C106.866 119.282 106.783 119.787 107.023 120.348C107.132 120.6 107.447 120.916 108.079 121.548L141.748 155.217C142.078 155.547 142.243 155.712 142.428 155.812C142.795 156.009 143.252 156.034 143.639 155.878C143.834 155.799 144.01 155.658 144.362 155.376C148.423 152.118 152.118 148.423 155.376 144.362C155.658 144.01 155.799 143.834 155.878 143.639C156.034 143.252 156.009 142.795 155.812 142.428C155.712 142.243 155.547 142.078 155.217 141.748L121.548 108.079C120.916 107.447 120.6 107.132 120.348 107.023ZM143.64 44.1235C143.253 43.9674 142.796 43.9922 142.429 44.1896C142.244 44.2891 142.079 44.4542 141.749 44.7843L108.08 78.4531C107.449 79.0848 107.133 79.4007 107.024 79.6529C106.783 80.2137 106.867 80.7191 107.276 81.1726C107.46 81.3765 107.916 81.6016 108.829 82.0515C112.784 84.0005 116.001 87.2185 117.95 91.1739C118.4 92.0871 118.625 92.5438 118.829 92.7276C119.282 93.136 119.788 93.2195 120.349 92.9787C120.601 92.8703 120.917 92.5543 121.549 91.9226L155.218 58.2538C155.548 57.9237 155.713 57.7587 155.813 57.5735C156.01 57.2062 156.035 56.7492 155.879 56.3625C155.8 56.1676 155.659 55.9915 155.377 55.6399C152.119 51.5785 148.424 47.8831 144.363 44.6253C144.011 44.3432 143.835 44.2022 143.64 44.1235ZM57.5725 44.1891C57.2052 43.9917 56.7483 43.967 56.3616 44.1231C56.1666 44.2018 55.9906 44.3428 55.639 44.6248C51.5777 47.8825 47.8825 51.5777 44.6248 55.639C44.3428 55.9906 44.2018 56.1666 44.1231 56.3616C43.967 56.7483 43.9917 57.2052 44.1891 57.5725C44.2886 57.7577 44.4538 57.9228 44.7839 58.2529L78.4527 91.9217C79.0843 92.5533 79.4002 92.8689 79.6524 92.9773C80.2132 93.2181 80.7187 93.1346 81.1721 92.7262C81.3761 92.5424 81.6011 92.0857 82.051 91.1725C83.9999 87.2173 87.2173 83.9999 91.1725 82.051C92.0857 81.6011 92.5424 81.3761 92.7262 81.1721C93.1346 80.7187 93.2181 80.2132 92.9773 79.6524C92.8689 79.4002 92.5533 79.0843 91.9217 78.4527L58.2529 44.7839C57.9228 44.4538 57.7577 44.2886 57.5725 44.1891Z" fill="#FFFFFF"/>
</svg>
